<?xml version="1.0" encoding="UTF-8" standalone="no"?>
<!-- Created with Inkscape (http://www.inkscape.org/) -->

<svg
   width="103.22249mm"
   height="19.826069mm"
   viewBox="0 0 103.22249 19.826069"
   version="1.1"
   id="svg1"
   xmlns="http://www.w3.org/2000/svg"
   xmlns:svg="http://www.w3.org/2000/svg">
  <defs
     id="defs1" />
  <g
     id="layer1"
     transform="translate(-4.2199563,-5.0317921)">
    <path
       d="m 23.058247,18.260929 q -0.881942,1.763885 -1.975551,3.210271 -1.093608,1.446385 -3.033882,2.363606 -1.164164,0.529165 -2.469439,0.776109 -1.269997,0.246944 -2.610549,0.246944 -0.211667,0 -0.423333,0 -0.211666,0 -0.388054,-0.03528 -0.846665,-0.03528 -1.658052,-0.211666 Q 9.6879996,24.469804 8.9118903,24.22286 6.8657837,23.517306 5.5252312,22.070921 4.2199564,20.624535 4.2199564,18.648984 q 0,-0.493888 0.070555,-0.987776 0.1058331,-0.529165 0.2822215,-1.058331 0.705554,-2.116662 2.8574936,-3.280826 2.1519396,-1.199441 4.5861015,-1.516941 0.529165,-0.07056 1.023053,-0.105833 0.529165,-0.03528 1.023053,-0.03528 0.740832,0 1.446386,0.07056 0.705554,0.07056 1.305275,0.246944 0.105833,0.03528 0.176388,0.07056 0.105833,0 0.211666,0.03528 1.023054,0.282222 1.904996,0.987776 0.91722,0.705553 0.952498,1.904995 0.07055,1.904996 -1.587496,2.998605 -1.658052,1.093608 -3.633603,1.587496 -1.093609,0.282222 -2.116662,0.388055 -1.023054,0.105833 -1.763885,0.07055 0.176388,1.269997 0.952498,1.975551 0.811387,0.670277 2.116662,0.670277 2.645827,0 4.44499,-1.481664 1.799162,-1.481663 2.822215,-3.739436 l 1.763885,0.811387 z m -6.455818,-3.98638 q 0,-0.599721 -0.3175,-0.846664 -0.317499,-0.246944 -0.91722,-0.282222 -1.305275,-0.03528 -2.257773,0.987775 -0.952497,1.023054 -1.446385,2.257773 -0.176389,0.423333 -0.282222,0.846665 -0.105833,0.423332 -0.176388,0.776109 0.423332,-0.03528 0.881942,-0.105833 0.45861,-0.07056 0.91722,-0.211666 1.340553,-0.352777 2.434161,-1.164164 1.128887,-0.811387 1.164165,-2.257773 z m 36.971015,4.021658 q -1.305274,2.681105 -3.139715,4.586101 -1.83444,1.869718 -5.150544,1.869718 -0.246944,0 -0.529165,-0.03528 -0.246944,0 -0.529166,-0.03528 -0.811387,-0.105833 -1.587496,-0.388054 -0.740832,-0.3175 -1.23472,-0.987776 -0.352777,-0.493888 -0.493887,-0.987775 -0.141111,-0.529166 -0.141111,-1.093609 0,-0.246944 0,-0.45861 0.03528,-0.246944 0.07055,-0.493888 0.105833,-0.599721 0.282222,-1.164164 0.211666,-0.599721 0.423332,-1.128886 0.03528,-0.105833 0.141111,-0.388055 0.105833,-0.282222 0.246944,-0.634999 0.03528,-0.14111 0.105833,-0.317499 0.07056,-0.176388 0.105833,-0.352777 0.07056,-0.282222 0.105833,-0.529165 0.07056,-0.282222 0.07056,-0.493888 0,-0.282222 -0.141111,-0.45861 -0.105833,-0.211666 -0.388055,-0.211666 -0.634998,0 -1.199442,0.59972 -0.564443,0.564444 -0.987775,1.23472 -0.211666,0.388055 -0.388055,0.776109 -0.176388,0.352777 -0.282221,0.634999 -0.282222,0.811387 -0.564444,1.658052 -0.282221,0.811387 -0.564443,1.622774 -0.317499,0.846665 -0.599721,1.693329 -0.282221,0.811387 -0.564443,1.622774 h -6.984984 q 0.388055,-1.058331 0.740832,-2.116661 0.388054,-1.058331 0.776109,-2.15194 0.352777,-1.058331 0.705554,-2.116662 0.388055,-1.058331 0.740832,-2.116662 0.07055,-0.211666 0.105833,-0.388055 0.03528,-0.211666 0.03528,-0.352777 0,-0.352777 -0.176388,-0.493887 -0.141111,-0.141111 -0.423333,-0.141111 -0.176388,0 -0.388054,0.07056 -0.176389,0.03528 -0.352777,0.141111 -0.211666,0.105833 -0.423333,0.282222 -0.176388,0.14111 -0.352777,0.352777 -0.529165,0.59972 -1.164164,1.728607 -0.599721,1.093609 -1.305274,2.963327 0,0 -0.246944,0.670276 -0.211667,0.670276 -0.493888,1.481663 -0.211666,0.705554 -0.423333,1.340553 -0.211666,0.634998 -0.282221,0.846664 h -6.59693 L 24.39879,12.052055 h 6.596929 l -0.282221,0.77611 q 0.811387,-0.493888 1.799162,-0.811387 1.023054,-0.352777 2.046107,-0.423333 0.105833,0 0.211666,0 0.105833,0 0.211666,0 0.493888,0 0.987776,0.07056 0.529165,0.07056 0.987775,0.246943 0.740832,0.246944 1.340553,0.77611 0.599721,0.493888 0.846665,1.305275 1.058331,-1.128887 2.363606,-1.728608 1.340552,-0.59972 2.75166,-0.59972 0.529166,0 1.058331,0.105833 0.529165,0.07056 1.058331,0.246944 1.37583,0.45861 2.081384,1.481663 0.705554,1.023053 0.705554,2.29305 0,0.423333 -0.07056,0.846665 -0.07056,0.423332 -0.246944,0.881943 -0.07056,0.211666 -0.211666,0.59972 -0.141111,0.388055 -0.282222,0.811387 -0.03528,0.105834 -0.07055,0.211667 -0.03528,0.105833 -0.07056,0.211666 -0.141111,0.493888 -0.282221,0.952498 -0.105833,0.423332 -0.105833,0.705554 0,0.03528 0,0.105833 0,0.03528 0.03528,0.105833 0.03528,0.03528 0.105833,0.03528 0.105833,0 0.246944,0 0.176389,0 0.352777,-0.03528 0.176389,-0.07056 0.352777,-0.176389 0.493888,-0.282221 0.987776,-0.811387 0.493888,-0.529165 0.881942,-1.093608 0.352777,-0.493888 0.599721,-0.91722 0.282222,-0.458611 0.423333,-0.77611 l 1.763884,0.846665 z m 15.486943,0.141111 q -0.634998,2.892771 -3.033882,4.339157 -2.363606,1.446385 -5.079988,1.799162 -0.599721,0.105833 -1.23472,0.141111 -0.599721,0.03528 -1.199442,0.03528 -0.493887,0 -1.023053,-0.03528 -0.529165,-0.03528 -1.093609,-0.105833 -1.269997,-0.176389 -2.469439,-0.634999 -1.199441,-0.493887 -1.975551,-1.481663 -0.45861,-0.634999 -0.705554,-1.340553 -0.211666,-0.740831 -0.211666,-1.516941 0,-0.211666 0,-0.423332 0.03528,-0.211666 0.07056,-0.423332 0.07055,-0.423333 0.176388,-0.846665 0.105833,-0.45861 0.246944,-0.846665 1.058331,-3.033882 2.081384,-6.032486 1.058331,-3.0338824 2.081384,-6.0324867 h 6.949707 l -2.645827,7.7610937 q 0.881942,-0.564443 1.763885,-0.846665 0.91722,-0.282221 1.904995,-0.282221 0.388055,0 0.77611,0.07056 0.423332,0.03528 0.811387,0.141111 1.975551,0.45861 2.998604,1.869718 1.023053,1.37583 0.987776,3.174993 0,0.352777 -0.07056,0.740831 -0.03528,0.388055 -0.105833,0.77611 z m -6.949706,0 q 0.03528,-0.141111 0.105833,-0.352777 0.105833,-0.211666 0.176388,-0.493888 0.07056,-0.246944 0.141111,-0.564443 0.105833,-0.352777 0.141111,-0.670277 0.03528,-0.176388 0.03528,-0.352777 0.03528,-0.211666 0.03528,-0.388054 0,-0.599721 -0.246944,-0.987776 -0.246944,-0.423332 -0.846665,-0.423332 -0.776109,0 -1.516941,0.811387 -0.740831,0.776109 -1.305274,1.693329 -0.388055,0.599721 -0.670277,1.164165 -0.246944,0.564443 -0.388054,0.91722 -0.423333,1.058331 -0.705554,1.940273 -0.246944,0.881943 -0.211667,1.516941 0,0.423333 0.211667,0.670276 0.246944,0.246944 0.740831,0.246944 1.128887,0 2.010829,-0.91722 0.881943,-0.91722 1.446386,-2.010829 0.282221,-0.45861 0.493888,-0.91722 0.211666,-0.493888 0.352777,-0.881942 z m 26.811054,-0.176389 q -0.881943,1.763885 -1.975552,3.210271 -1.093608,1.446385 -3.033882,2.363606 -1.164164,0.529165 -2.469438,0.776109 -1.269998,0.246944 -2.61055,0.246944 -0.211666,0 -0.423333,0 -0.211666,0 -0.388054,-0.03528 -0.846665,-0.03528 -1.658052,-0.211666 -0.811387,-0.141111 -1.587496,-0.388055 -2.046107,-0.705554 -3.38666,-2.151939 -1.305274,-1.446386 -1.305274,-3.421937 0,-0.493888 0.07055,-0.987776 0.105833,-0.529165 0.282222,-1.058331 0.705554,-2.116662 2.857493,-3.280826 2.15194,-1.199441 4.586101,-1.516941 0.529165,-0.07056 1.023053,-0.105833 0.529166,-0.03528 1.023053,-0.03528 0.740832,0 1.446386,0.07056 0.705554,0.07056 1.305275,0.246944 0.105833,0.03528 0.176388,0.07056 0.105834,0 0.211667,0.03528 1.023053,0.282222 1.904995,0.987776 0.917221,0.705553 0.952498,1.904995 0.07056,1.904996 -1.587496,2.998605 -1.658052,1.093608 -3.633603,1.587496 -1.093609,0.282222 -2.116662,0.388055 -1.023053,0.105833 -1.763885,0.07055 0.176389,1.269997 0.952498,1.975551 0.811387,0.670277 2.116662,0.670277 2.645827,0 4.44499,-1.481664 1.799162,-1.481663 2.822216,-3.739436 l 1.763885,0.811387 z m -6.455819,-3.98638 q 0,-0.599721 -0.3175,-0.846664 -0.317499,-0.246944 -0.91722,-0.282222 -1.305275,-0.03528 -2.257772,0.987775 -0.952498,1.023054 -1.446386,2.257773 -0.176389,0.423333 -0.282222,0.846665 -0.105833,0.423332 -0.176388,0.776109 0.423332,-0.03528 0.881942,-0.105833 0.45861,-0.07056 0.917221,-0.211666 1.340552,-0.352777 2.434161,-1.164164 1.128886,-0.811387 1.164164,-2.257773 z m 24.906034,-0.599721 q 0.0705,0.211667 0.0705,0.423333 0,0.211666 0,0.388054 0,1.305275 -0.81138,2.081385 -0.77611,0.740831 -1.72861,0.740831 -0.0353,0 -0.0706,0 0,0 -0.0353,0 -0.74084,0 -1.41111,-0.493887 -0.67028,-0.493888 -0.9525,-1.587497 -0.10583,-0.317499 -0.28222,-0.45861 -0.14111,-0.176388 -0.35278,-0.141111 -0.35278,0 -0.81139,0.423333 -0.42333,0.388054 -0.91722,1.093608 -0.846661,1.093609 -1.446382,2.434161 -0.599721,1.340553 -1.058331,2.716383 -0.211666,0.599721 -0.388055,1.164164 -0.176388,0.564444 -0.388054,1.128887 -0.07056,0.211666 -0.141111,0.423332 -0.07056,0.211666 -0.141111,0.423332 H 89.980042 L 92.908091,16.2501 q 0.07055,-0.14111 0.07055,-0.246944 0,-0.105833 0,-0.176388 0,-0.388055 -0.317499,-0.493888 -0.282222,-0.141111 -0.670276,-0.105833 -0.917221,0.105833 -1.622775,0.846665 -0.705554,0.740832 -1.164164,1.587496 -0.105833,0.176389 -0.211666,0.388055 -0.105833,0.211666 -0.176388,0.388055 l -1.763885,-0.705554 q 0.91722,-2.398884 2.681105,-4.303879 1.799162,-1.940274 4.480268,-2.081385 0.246943,-0.03528 0.493887,-0.03528 0.282222,0 0.564444,0.03528 1.164164,0.07056 2.222495,0.599721 1.093608,0.493888 1.728607,1.516941 0.776109,-0.564443 1.622766,-1.058331 0.88195,-0.493888 1.79917,-0.776109 0.42333,-0.141111 0.81138,-0.176389 0.42333,-0.07055 0.81139,-0.07055 0.52917,0 1.02305,0.141111 0.52917,0.141111 0.98778,0.423332 0.45861,0.317499 0.70555,0.77611 0.28222,0.45861 0.38806,0.952497 z"
       id="text2"
       style="font-size:35.2777px;line-height:1.25;font-family:Creampuff;-inkscape-font-specification:Creampuff;text-align:center;letter-spacing:0px;word-spacing:0px;text-anchor:middle;fill:#b44943;fill-opacity:1;stroke-width:0.264583"
       aria-label="ember" />
  </g>
</svg>
