<?xml version="1.0" encoding="UTF-8" standalone="no"?>
<!-- Created with Inkscape (http://www.inkscape.org/) -->

<svg
   width="154.81224mm"
   height="19.826073mm"
   viewBox="0 0 154.81224 19.826073"
   version="1.1"
   id="svg1"
   xmlns="http://www.w3.org/2000/svg"
   xmlns:svg="http://www.w3.org/2000/svg">
  <defs
     id="defs1" />
  <g
     id="layer1"
     transform="translate(-25.980693,-60.358467)">
    <path
       d="m 38.574832,73.62288 q -0.07055,0.176389 -0.176388,0.352777 -0.07055,0.141111 -0.176389,0.3175 -0.564443,1.128886 -1.234719,2.187217 -0.670276,1.058331 -1.622774,1.904996 -0.881943,0.776109 -2.081384,1.199441 -1.164164,0.423333 -2.434162,0.493888 -0.07055,0 -0.176388,0 -0.07055,0 -0.141111,0 -0.529165,0 -1.058331,-0.07055 -0.529165,-0.07056 -1.023053,-0.246944 -1.340553,-0.45861 -1.904996,-1.411108 -0.564443,-0.987776 -0.564443,-2.15194 0,-0.388054 0.03528,-0.776109 0.07055,-0.423332 0.176388,-0.846665 0.07056,-0.211666 0.105833,-0.388054 0.07056,-0.211667 0.141111,-0.423333 0.564443,-1.622774 1.093609,-3.21027 0.564443,-1.622774 1.128886,-3.245549 0.846665,0 1.69333,0 0.881942,0 1.763885,0 0.881942,0 1.728607,0 0.881942,0 1.728607,0 -0.211666,0.634999 -0.45861,1.305275 -0.211666,0.634999 -0.423332,1.269997 -0.45861,1.269998 -0.917221,2.575272 -0.423332,1.269998 -0.846664,2.575272 -0.105833,0.246944 -0.176389,0.529166 -0.07056,0.246944 -0.07056,0.45861 0,0.211666 0.141111,0.352777 0.176388,0.141111 0.564443,0.105833 0.282221,0 0.705554,-0.211666 0.423332,-0.246944 0.881942,-0.670276 0.634999,-0.634999 1.023053,-1.340553 0.423333,-0.705554 0.77611,-1.481663 0.141111,0.07055 0.282221,0.14111 0.176389,0.07056 0.3175,0.141111 0.282221,0.141111 0.564443,0.282222 0.317499,0.105833 0.634998,0.282221 z m -1.693329,-9.4897 q -0.211666,0.670276 -0.776109,1.128886 -0.564444,0.423332 -1.199442,0.634998 -0.141111,0.03528 -0.246944,0.07056 -0.105833,0 -0.211666,0.03528 -0.282222,0.03528 -0.599721,0.07055 -0.282222,0.03528 -0.564443,0.03528 -0.77611,0 -1.552219,-0.176389 -0.776109,-0.211666 -1.37583,-0.670276 -0.45861,-0.352777 -0.740832,-0.811387 -0.246944,-0.493888 -0.246944,-0.987776 0,-0.282221 0.105833,-0.564443 0.105833,-0.282222 0.282222,-0.529165 0.493888,-0.634999 1.269997,-0.952498 0.811387,-0.3175 1.658052,-0.388055 0.105833,0 0.176388,0 0.105833,0 0.211667,0 0.388054,0 0.776109,0.07055 0.388055,0.03528 0.740832,0.141111 0.105833,0.03528 0.211666,0.07056 0.105833,0.03528 0.176388,0.07055 0.740832,0.317499 1.340553,0.881942 0.634998,0.564444 0.634998,1.375831 0,0.105833 -0.03528,0.246944 0,0.105833 -0.03528,0.246944 z m 21.166592,9.4897 q -1.269998,2.681105 -3.139716,4.586101 -1.83444,1.869718 -5.079988,1.869718 -0.211666,0 -0.423333,-0.03528 -0.211666,0 -0.423332,0 -0.881942,-0.105834 -1.69333,-0.423333 -0.811387,-0.317499 -1.340552,-1.023053 -0.352777,-0.493888 -0.529166,-1.023053 -0.14111,-0.564444 -0.14111,-1.128887 0,-0.282221 0.03528,-0.564443 0.03528,-0.282221 0.07056,-0.529165 0.105833,-0.564444 0.282221,-1.128887 0.211667,-0.564443 0.388055,-1.058331 0.03528,-0.105833 0.141111,-0.352777 0.105833,-0.246944 0.246944,-0.564443 0.03528,-0.176388 0.07055,-0.317499 0.07056,-0.176389 0.141111,-0.352777 0.07055,-0.282222 0.105833,-0.529166 0.07055,-0.282221 0.07055,-0.493887 0,-0.282222 -0.14111,-0.45861 -0.105833,-0.211667 -0.388055,-0.211667 -0.352777,0 -0.811387,0.352777 -0.45861,0.3175 -1.058331,1.128887 -0.846665,1.199441 -1.446386,2.610549 -0.599721,1.375831 -1.128886,2.822216 -0.211666,0.670277 -0.423332,1.340553 -0.211667,0.634998 -0.423333,1.269997 -0.03528,0.07055 -0.07055,0.176388 -0.03528,0.07056 -0.07056,0.176389 h -6.561652 q 1.058331,-3.104438 2.116662,-6.173597 1.058331,-3.104438 2.15194,-6.208875 h 6.561652 q -0.03528,0.105833 -0.07056,0.211666 -0.03528,0.105833 -0.07055,0.211666 -0.07055,0.141111 -0.105833,0.246944 -0.03528,0.105833 -0.07055,0.211666 0.811387,-0.45861 1.799162,-0.776109 1.023053,-0.352777 2.081384,-0.45861 0.176389,-0.03528 0.352777,-0.03528 0.176389,0 0.352777,0 1.023054,0 1.940274,0.352777 0.952498,0.317499 1.658052,1.093609 0.45861,0.493888 0.670276,1.093608 0.211666,0.599721 0.211666,1.23472 0,0.141111 -0.03528,0.317499 0,0.176389 -0.03528,0.317499 -0.03528,0.176389 -0.07056,0.352777 -0.03528,0.141111 -0.105833,0.3175 -0.105833,0.352777 -0.246944,0.740831 -0.14111,0.352777 -0.246944,0.740832 -0.14111,0.352777 -0.282221,0.740832 -0.141111,0.352777 -0.246944,0.740831 -0.03528,0.07056 -0.07056,0.176389 -0.03528,0.105833 -0.07056,0.246944 -0.03528,0.07056 -0.07055,0.176388 -0.03528,0.07056 -0.03528,0.176389 -0.03528,0.07055 -0.07056,0.176388 0,0.105833 0,0.176389 0,0.176388 0.105833,0.317499 0.105833,0.105833 0.352777,0.105833 0.211666,0 0.388054,-0.07055 0.211667,-0.07056 0.423333,-0.176389 0.423332,-0.282221 0.846665,-0.705554 0.45861,-0.45861 0.811387,-0.91722 0.282221,-0.352777 0.493887,-0.705554 0.211667,-0.352777 0.3175,-0.634998 0.03528,-0.07056 0.07055,-0.141111 0.03528,-0.07056 0.07055,-0.176389 0,-0.07055 0.03528,-0.141111 0.03528,-0.07055 0.07056,-0.14111 l 1.763885,0.846664 z M 78.368024,73.5876 q -1.340553,2.786938 -3.139715,4.656656 -1.799163,1.83444 -5.150544,1.83444 -1.164164,0 -2.222495,-0.45861 -1.023053,-0.45861 -1.516941,-1.587496 -0.987776,1.058331 -2.328328,1.587496 -1.305275,0.529166 -2.681105,0.529166 -1.305275,-0.03528 -2.539995,-0.529166 -1.199441,-0.493888 -2.116662,-1.552219 -0.59972,-0.670276 -0.91722,-1.411108 -0.317499,-0.776109 -0.423332,-1.552218 0,-0.176389 -0.03528,-0.3175 0,-0.176388 0,-0.317499 0,-1.587496 0.846665,-3.06916 0.846665,-1.516941 2.257773,-2.575272 1.023053,-0.776109 2.363605,-1.269997 1.340553,-0.493888 2.751661,-0.599721 0.176388,0 0.317499,0 0.176389,0 0.3175,0 1.164164,0 2.222495,0.3175 1.093608,0.317499 1.975551,1.058331 l 2.716382,-7.97276 q 1.69333,0 3.351382,0 1.693329,0 3.351381,0 -1.269997,3.66888 -2.539994,7.337761 -1.269997,3.668881 -2.539994,7.337761 0,0.03528 -0.03528,0.141111 -0.03528,0.07056 -0.03528,0.176389 -0.03528,0.07055 -0.07056,0.176388 0,0.105833 0,0.176389 -0.03528,0.07055 -0.03528,0.14111 0,0.07056 0,0.141111 0,0.141111 0.03528,0.282222 0.07056,0.141111 0.176388,0.176388 0.07056,0.03528 0.141111,0.07056 0.105833,0 0.211666,-0.03528 0.176389,0 0.352777,-0.07055 0.211666,-0.07056 0.423333,-0.176389 0.388054,-0.246944 0.776109,-0.634998 0.423332,-0.423333 0.776109,-0.846665 0.3175,-0.388055 0.529166,-0.77611 0.246944,-0.388054 0.352777,-0.634998 0.07055,-0.141111 0.141111,-0.282222 0.07055,-0.141111 0.14111,-0.282221 l 1.799163,0.811387 z m -11.994417,0.07055 q 0.07055,-0.141111 0.14111,-0.388055 0.105833,-0.282221 0.211667,-0.634998 0.105833,-0.282222 0.176388,-0.564443 0.105833,-0.3175 0.141111,-0.634999 0.07056,-0.246944 0.07056,-0.45861 0.03528,-0.246944 0.03528,-0.45861 0,-0.564443 -0.211666,-0.91722 -0.211666,-0.388055 -0.811387,-0.388055 -0.105833,0 -0.211667,0.03528 -0.07055,0 -0.176388,0.03528 -0.705554,0.176389 -1.37583,0.917221 -0.670277,0.705554 -1.23472,1.552218 -0.352777,0.599721 -0.670276,1.164164 -0.282222,0.564444 -0.423332,0.917221 -0.03528,0.105833 -0.105833,0.317499 -0.07056,0.176388 -0.141111,0.423332 -0.105833,0.282222 -0.176389,0.634999 -0.07055,0.317499 -0.141111,0.670276 0,0.176389 -0.03528,0.352777 0,0.176389 0,0.352777 0,0.529166 0.211666,0.91722 0.211666,0.388055 0.705554,0.388055 1.128886,0 1.904996,-0.811387 0.811387,-0.846665 1.340552,-1.83444 0.246944,-0.423333 0.423333,-0.811388 0.211666,-0.423332 0.352777,-0.776109 z m 31.538291,-0.17638 q -0.03528,0.07055 -0.105833,0.176388 -0.03528,0.07056 -0.07055,0.176389 -0.599721,1.199441 -1.340553,2.363605 -0.705554,1.164164 -1.728607,2.046107 -0.987775,0.811387 -2.222495,1.269997 -1.199442,0.423332 -2.786938,0.423332 -1.516941,0 -2.645827,-0.705554 -1.128887,-0.705553 -1.375831,-2.29305 -1.199441,1.269997 -2.822216,2.15194 -1.587496,0.881942 -3.421936,0.881942 -1.904996,0 -2.822216,-1.128886 -0.881943,-1.164164 -0.881943,-2.681105 0,-0.529166 0.105833,-1.058331 0.105834,-0.529166 0.282222,-1.023054 0.317499,-0.881942 0.599721,-1.728607 0.317499,-0.881942 0.599721,-1.728607 0.282221,-0.881942 0.564443,-1.728607 0.317499,-0.881943 0.634999,-1.728607 h 6.702762 q -0.352777,0.987775 -0.705554,1.975551 -0.317499,0.987775 -0.634998,1.975551 -0.352777,0.987775 -0.705554,1.975551 -0.3175,0.987775 -0.670276,1.975551 -0.03528,0.141111 -0.105834,0.317499 -0.03528,0.141111 -0.03528,0.282222 0,0.211666 0.105833,0.352777 0.141111,0.141111 0.45861,0.141111 0.352777,0 0.846665,-0.246944 0.529165,-0.282222 1.128886,-1.023053 0.776109,-0.881943 1.305275,-2.046107 0.564443,-1.199442 1.023053,-2.434161 0.176389,-0.564443 0.352777,-1.128887 0.211666,-0.59972 0.423332,-1.164164 0.03528,-0.14111 0.07056,-0.246943 0.07055,-0.141111 0.105833,-0.282222 0,-0.07055 0,-0.105833 0.03528,-0.07056 0.07055,-0.105833 0,-0.03528 0,-0.03528 0.03528,-0.03528 0.03528,-0.03528 0,-0.03528 0,-0.07055 0.03528,-0.03528 0.03528,-0.07055 0.564443,0 1.093608,0 0.564444,0 1.128887,0 1.093608,0 2.187217,0 1.128886,0 2.257773,0 -0.352777,0.952497 -0.705554,1.940273 -0.317499,0.952498 -0.634999,1.904996 -0.317499,0.987775 -0.670276,1.975551 -0.317499,0.952498 -0.670276,1.904996 -0.105833,0.282221 -0.141111,0.529165 -0.03528,0.211666 -0.03528,0.388055 0,0.282221 0.105833,0.423332 0.141111,0.105833 0.352777,0.105833 0.211666,0 0.45861,-0.105833 0.246944,-0.105833 0.529166,-0.246944 0.176388,-0.141111 0.352777,-0.282221 0.176388,-0.141111 0.352777,-0.282222 0.670276,-0.599721 1.093608,-1.269997 0.423333,-0.705554 0.77611,-1.516941 l 1.799162,0.846665 z m 11.147732,0.105833 q 0.17639,2.928049 -1.905,4.480267 -2.08138,1.516941 -4.5861,1.763885 -0.3175,0.03528 -0.635,0.03528 -0.28222,0.03528 -0.56444,0.03528 -0.35278,0 -0.74083,-0.03528 -0.38806,0 -0.77611,-0.07056 -1.023054,-0.105833 -2.010829,-0.493888 -0.952498,-0.388055 -1.658052,-1.128886 -0.493888,-0.599721 -0.740832,-1.269998 -0.211666,-0.670276 -0.211666,-1.37583 0,-0.388055 0.03528,-0.776109 0.07055,-0.388055 0.176388,-0.77611 0.246944,-0.91722 0.987776,-1.411108 0.740831,-0.529165 1.622774,-0.493887 0.105833,0 0.176388,0 0.105833,0 0.176389,0 0.07055,0 0.141111,0.03528 0.105833,0 0.211666,0.03528 l 3.139717,-4.374435 6.66748,-1.693329 q 0.10583,1.869718 0.21167,3.774714 0.14111,1.869718 0.28222,3.739436 z m -6.52638,-3.104438 -2.11666,2.822216 q 0.21167,0.282222 0.28222,0.634999 0.10584,0.317499 0.10584,0.670276 0,0.352777 -0.10584,0.670276 -0.10583,0.3175 -0.3175,0.599721 -0.35277,0.529166 -0.952493,0.846665 -0.599721,0.282221 -1.234719,0.282221 -0.03528,0 -0.105833,0 -0.03528,0 -0.07056,0 -0.03528,0 -0.105833,0 -0.03528,-0.03528 -0.07056,-0.03528 0.246944,0.352777 0.634998,0.634998 0.388055,0.246944 0.846665,0.246944 1.446385,0 2.293045,-0.776109 0.88195,-0.77611 0.88195,-2.293051 0.0353,-1.093608 0.0353,-2.151939 0,-1.093609 0,-2.15194 z m 19.79082,3.139715 q -0.0706,0.176389 -0.17639,0.352777 -0.0706,0.141111 -0.14111,0.3175 -0.56444,1.128886 -1.23472,2.187217 -0.67028,1.058331 -1.62278,1.904996 -0.88194,0.776109 -2.11666,1.234719 -1.19944,0.45861 -2.78694,0.45861 -0.0705,0 -0.14111,0 -0.0353,0 -0.0705,0 -0.98778,-0.03528 -1.905,-0.388054 -0.88194,-0.352777 -1.44638,-1.199442 -0.35278,-0.529166 -0.52917,-1.128887 -0.14111,-0.59972 -0.14111,-1.234719 0,-0.176388 0,-0.317499 0.0353,-0.176389 0.0706,-0.352777 0.0705,-0.493888 0.17638,-0.987776 0.14112,-0.493888 0.28223,-0.952498 0.21166,-0.564443 0.38805,-1.128886 0.21167,-0.564443 0.38806,-1.164164 0.17638,-0.564443 0.35277,-1.128886 0.21167,-0.564444 0.42333,-1.128887 h -1.51694 l 0.59972,-1.693329 h 1.51695 q 0.17638,-0.529166 0.35277,-1.023054 0.17639,-0.529165 0.38806,-1.058331 0.17639,-0.493887 0.35277,-0.987775 0.17639,-0.529166 0.35278,-1.058331 1.16417,-0.176389 2.32833,-0.317499 1.16416,-0.176389 2.32833,-0.352777 0.56444,-0.07056 1.16416,-0.141111 0.59972,-0.105833 1.16417,-0.176389 -0.21167,0.634999 -0.45861,1.269998 -0.21167,0.634998 -0.42334,1.269997 -0.21166,0.634998 -0.45861,1.305275 -0.21166,0.634998 -0.42333,1.269997 h 1.905 l -0.635,1.693329 h -1.86972 q -0.24694,0.740832 -0.52917,1.516941 -0.24694,0.740832 -0.49388,1.516941 -0.28222,0.77611 -0.52917,1.552219 -0.24694,0.740832 -0.52916,1.481663 -0.0706,0.246944 -0.14112,0.493888 -0.0353,0.211666 -0.0353,0.388055 0,0.317499 0.14111,0.45861 0.14111,0.105833 0.38805,0.105833 0.21167,0 0.45861,-0.105833 0.28222,-0.105833 0.56445,-0.282222 0.14111,-0.105833 0.28222,-0.211666 0.17639,-0.105833 0.3175,-0.246944 0.67027,-0.599721 1.09361,-1.340552 0.42333,-0.740832 0.7761,-1.516941 l 1.79917,0.846664 z m 18.41495,-4.621378 q 0.0705,0.211666 0.0705,0.423332 0,0.211666 0,0.388055 0,1.305275 -0.81138,2.081384 -0.77611,0.740832 -1.72861,0.740832 -0.0353,0 -0.0706,0 0,0 -0.0353,0 -0.74083,0 -1.4111,-0.493888 -0.67028,-0.493888 -0.9525,-1.587496 -0.10583,-0.3175 -0.28222,-0.45861 -0.14111,-0.176389 -0.35278,-0.141111 -0.35278,0 -0.81139,0.423332 -0.42333,0.388055 -0.91722,1.093609 -0.84666,1.093608 -1.44638,2.434161 -0.59972,1.340553 -1.05833,2.716383 -0.21167,0.599721 -0.38806,1.164164 -0.17639,0.564443 -0.38805,1.128886 -0.0706,0.211666 -0.14111,0.423333 -0.0706,0.211666 -0.14111,0.423332 H 123.347 l 2.92805,-8.184426 q 0.0706,-0.141111 0.0706,-0.246944 0,-0.105833 0,-0.176388 0,-0.388055 -0.3175,-0.493888 -0.28222,-0.141111 -0.67028,-0.105833 -0.91722,0.105833 -1.62277,0.846664 -0.70556,0.740832 -1.16417,1.587497 -0.10583,0.176388 -0.21166,0.388055 -0.10584,0.211666 -0.17639,0.388054 l -1.76389,-0.705554 q 0.91722,-2.398883 2.68111,-4.303879 1.79916,-1.940273 4.48027,-2.081384 0.24694,-0.03528 0.49388,-0.03528 0.28222,0 0.56445,0.03528 1.16416,0.07055 2.22249,0.599721 1.09361,0.493887 1.72861,1.516941 0.77611,-0.564443 1.62277,-1.058331 0.88195,-0.493888 1.79917,-0.77611 0.42333,-0.14111 0.81138,-0.176388 0.42333,-0.07056 0.81139,-0.07056 0.52916,0 1.02305,0.141111 0.52917,0.141111 0.98778,0.423333 0.45861,0.317499 0.70555,0.776109 0.28222,0.45861 0.38806,0.952498 z m 12.59411,4.621378 q -0.0706,0.176389 -0.17639,0.352777 -0.0706,0.141111 -0.17639,0.3175 -0.56444,1.128886 -1.23472,2.187217 -0.67028,1.058331 -1.62277,1.904996 -0.88195,0.776109 -2.08139,1.199441 -1.16416,0.423333 -2.43416,0.493888 -0.0706,0 -0.17639,0 -0.0705,0 -0.14111,0 -0.52917,0 -1.05833,-0.07055 -0.52917,-0.07056 -1.02305,-0.246944 -1.34056,-0.45861 -1.905,-1.411108 -0.56444,-0.987776 -0.56444,-2.15194 0,-0.388054 0.0353,-0.776109 0.0706,-0.423332 0.17639,-0.846665 0.0706,-0.211666 0.10584,-0.388054 0.0705,-0.211667 0.14111,-0.423333 0.56444,-1.622774 1.09361,-3.21027 0.56444,-1.622774 1.12888,-3.245549 0.84667,0 1.69333,0 0.88194,0 1.76389,0 0.88194,0 1.7286,0 0.88195,0 1.72861,0 -0.21166,0.634999 -0.45861,1.305275 -0.21167,0.634999 -0.42333,1.269997 -0.45861,1.269998 -0.91722,2.575272 -0.42333,1.269998 -0.84667,2.575272 -0.10583,0.246944 -0.17638,0.529166 -0.0706,0.246944 -0.0706,0.45861 0,0.211666 0.14111,0.352777 0.17639,0.141111 0.56444,0.105833 0.28223,0 0.70556,-0.211666 0.42333,-0.246944 0.88194,-0.670276 0.635,-0.634999 1.02305,-1.340553 0.42334,-0.705554 0.77611,-1.481663 0.14111,0.07055 0.28222,0.14111 0.17639,0.07056 0.3175,0.141111 0.28223,0.141111 0.56445,0.282222 0.3175,0.105833 0.635,0.282221 z m -1.69333,-9.4897 q -0.21167,0.670276 -0.77611,1.128886 -0.56445,0.423332 -1.19945,0.634998 -0.14111,0.03528 -0.24694,0.07056 -0.10583,0 -0.21167,0.03528 -0.28222,0.03528 -0.59972,0.07055 -0.28222,0.03528 -0.56444,0.03528 -0.77611,0 -1.55222,-0.176389 -0.77611,-0.211666 -1.37583,-0.670276 -0.45861,-0.352777 -0.74083,-0.811387 -0.24694,-0.493888 -0.24694,-0.987776 0,-0.282221 0.10583,-0.564443 0.10583,-0.282222 0.28222,-0.529165 0.49389,-0.634999 1.27,-0.952498 0.81139,-0.3175 1.65805,-0.388055 0.10583,0 0.17639,0 0.10583,0 0.21166,0 0.38806,0 0.77611,0.07055 0.38806,0.03528 0.74084,0.141111 0.10583,0.03528 0.21166,0.07056 0.10583,0.03528 0.17639,0.07055 0.74083,0.317499 1.34055,0.881942 0.635,0.564444 0.635,1.375831 0,0.105833 -0.0353,0.246944 0,0.105833 -0.0353,0.246944 z m 17.92106,9.454423 q -0.88194,1.763885 -1.97555,3.21027 -1.09361,1.446386 -3.03388,2.363606 -1.16417,0.529166 -2.46944,0.776109 -1.27,0.246944 -2.61055,0.246944 -0.21167,0 -0.42333,0 -0.21167,0 -0.38806,-0.03528 -0.84666,-0.03528 -1.65805,-0.211667 -0.81139,-0.14111 -1.5875,-0.388054 -2.0461,-0.705554 -3.38666,-2.15194 -1.30527,-1.446385 -1.30527,-3.421937 0,-0.493887 0.0706,-0.987775 0.10583,-0.529166 0.28222,-1.058331 0.70555,-2.116662 2.85749,-3.280826 2.15194,-1.199442 4.5861,-1.516941 0.52917,-0.07056 1.02305,-0.105833 0.52917,-0.03528 1.02306,-0.03528 0.74083,0 1.44638,0.07055 0.70556,0.07056 1.30528,0.246944 0.10583,0.03528 0.17639,0.07056 0.10583,0 0.21166,0.03528 1.02306,0.282222 1.905,0.987776 0.91722,0.705554 0.9525,1.904996 0.0705,1.904995 -1.5875,2.998604 -1.65805,1.093609 -3.6336,1.587497 -1.09361,0.282221 -2.11666,0.388054 -1.02306,0.105833 -1.76389,0.07056 0.17639,1.269997 0.9525,1.975551 0.81139,0.670276 2.11666,0.670276 2.64583,0 4.44499,-1.481663 1.79916,-1.481664 2.82222,-3.739436 l 1.76388,0.811387 z m -6.45582,-3.98638 q 0,-0.599721 -0.3175,-0.846665 -0.3175,-0.246944 -0.91722,-0.282222 -1.30527,-0.03528 -2.25777,0.987776 -0.9525,1.023053 -1.44639,2.257773 -0.17638,0.423332 -0.28222,0.846664 -0.10583,0.423333 -0.17639,0.77611 0.42334,-0.03528 0.88195,-0.105833 0.45861,-0.07056 0.91722,-0.211666 1.34055,-0.352777 2.43416,-1.164165 1.12888,-0.811387 1.16416,-2.257772 z m 17.67412,3.98638 q 0.17639,2.928049 -1.905,4.480267 -2.08138,1.516941 -4.5861,1.763885 -0.3175,0.03528 -0.635,0.03528 -0.28222,0.03528 -0.56444,0.03528 -0.35278,0 -0.74083,-0.03528 -0.38806,0 -0.77611,-0.07056 -1.02306,-0.105833 -2.01083,-0.493888 -0.9525,-0.388055 -1.65805,-1.128886 -0.49389,-0.599721 -0.74083,-1.269998 -0.21167,-0.670276 -0.21167,-1.37583 0,-0.388055 0.0353,-0.776109 0.0705,-0.388055 0.17639,-0.77611 0.24694,-0.91722 0.98777,-1.411108 0.74083,-0.529165 1.62278,-0.493887 0.10583,0 0.17638,0 0.10584,0 0.17639,0 0.0706,0 0.14111,0.03528 0.10584,0 0.21167,0.03528 l 3.13971,-4.374435 6.66749,-1.693329 q 0.10583,1.869718 0.21167,3.774714 0.14111,1.869718 0.28222,3.739436 z m -6.52638,-3.104438 -2.11666,2.822216 q 0.21167,0.282222 0.28222,0.634999 0.10584,0.317499 0.10584,0.670276 0,0.352777 -0.10584,0.670276 -0.10583,0.3175 -0.3175,0.599721 -0.35277,0.529166 -0.95249,0.846665 -0.59973,0.282221 -1.23472,0.282221 -0.0353,0 -0.10584,0 -0.0353,0 -0.0705,0 -0.0353,0 -0.10584,0 -0.0353,-0.03528 -0.0706,-0.03528 0.24694,0.352777 0.635,0.634998 0.38805,0.246944 0.84666,0.246944 1.44639,0 2.29305,-0.776109 0.88195,-0.77611 0.88195,-2.293051 0.0353,-1.093608 0.0353,-2.151939 0,-1.093609 0,-2.15194 z"
       id="text2-9"
       style="font-size:35.2777px;line-height:1.25;font-family:Creampuff;-inkscape-font-specification:Creampuff;text-align:center;letter-spacing:0px;word-spacing:0px;text-anchor:middle;fill:#282828;stroke-width:0.264583;fill-opacity:1"
       aria-label="industries" />
  </g>
</svg>
